<svg xmlns="http://www.w3.org/2000/svg" width="980" height="460" viewBox="0 0 980 460">
<rect width="100%" height="100%" fill="#fbfaf7"/>
<text x="80" y="32" font-family="Arial" font-size="20" font-weight="700" fill="#1f2933">Top Facebook reels by current lifetime views</text>
<line x1="80" y1="60.0" x2="950" y2="60.0" stroke="#d8dde2"/>
<text x="70" y="64.0" text-anchor="end" font-family="Arial" font-size="12" fill="#52606d">450,268</text>
<line x1="80" y1="137.5" x2="950" y2="137.5" stroke="#d8dde2"/>
<text x="70" y="141.5" text-anchor="end" font-family="Arial" font-size="12" fill="#52606d">337,701</text>
<line x1="80" y1="215.0" x2="950" y2="215.0" stroke="#d8dde2"/>
<text x="70" y="219.0" text-anchor="end" font-family="Arial" font-size="12" fill="#52606d">225,134</text>
<line x1="80" y1="292.5" x2="950" y2="292.5" stroke="#d8dde2"/>
<text x="70" y="296.5" text-anchor="end" font-family="Arial" font-size="12" fill="#52606d">112,567</text>
<line x1="80" y1="370.0" x2="950" y2="370.0" stroke="#d8dde2"/>
<text x="70" y="374.0" text-anchor="end" font-family="Arial" font-size="12" fill="#52606d">0</text>
<rect x="93.9" y="100.4" width="59.2" height="269.6" fill="#d18d32"/>
<text x="123.5" y="93.4" text-anchor="middle" font-family="Arial" font-size="12" fill="#1f2933">391,538</text>
<text x="123.5" y="408" text-anchor="middle" font-family="Arial" font-size="12" fill="#52606d">#1</text>
<rect x="180.9" y="232.2" width="59.2" height="137.8" fill="#d18d32"/>
<text x="210.5" y="225.2" text-anchor="middle" font-family="Arial" font-size="12" fill="#1f2933">200,203</text>
<text x="210.5" y="408" text-anchor="middle" font-family="Arial" font-size="12" fill="#52606d">#2</text>
<rect x="267.9" y="256.7" width="59.2" height="113.3" fill="#d18d32"/>
<text x="297.5" y="249.7" text-anchor="middle" font-family="Arial" font-size="12" fill="#1f2933">164,616</text>
<text x="297.5" y="408" text-anchor="middle" font-family="Arial" font-size="12" fill="#52606d">#3</text>
<rect x="354.9" y="282.2" width="59.2" height="87.8" fill="#d18d32"/>
<text x="384.5" y="275.2" text-anchor="middle" font-family="Arial" font-size="12" fill="#1f2933">127,557</text>
<text x="384.5" y="408" text-anchor="middle" font-family="Arial" font-size="12" fill="#52606d">#4</text>
<rect x="441.9" y="299.8" width="59.2" height="70.2" fill="#d18d32"/>
<text x="471.5" y="292.8" text-anchor="middle" font-family="Arial" font-size="12" fill="#1f2933">101,998</text>
<text x="471.5" y="408" text-anchor="middle" font-family="Arial" font-size="12" fill="#52606d">#5</text>
<rect x="528.9" y="309.5" width="59.2" height="60.5" fill="#d18d32"/>
<text x="558.5" y="302.5" text-anchor="middle" font-family="Arial" font-size="12" fill="#1f2933">87,845</text>
<text x="558.5" y="408" text-anchor="middle" font-family="Arial" font-size="12" fill="#52606d">#6</text>
<rect x="615.9" y="310.8" width="59.2" height="59.2" fill="#d18d32"/>
<text x="645.5" y="303.8" text-anchor="middle" font-family="Arial" font-size="12" fill="#1f2933">86,012</text>
<text x="645.5" y="408" text-anchor="middle" font-family="Arial" font-size="12" fill="#52606d">#7</text>
<rect x="702.9" y="319.0" width="59.2" height="51.0" fill="#d18d32"/>
<text x="732.5" y="312.0" text-anchor="middle" font-family="Arial" font-size="12" fill="#1f2933">74,042</text>
<text x="732.5" y="408" text-anchor="middle" font-family="Arial" font-size="12" fill="#52606d">#8</text>
<rect x="789.9" y="319.4" width="59.2" height="50.6" fill="#d18d32"/>
<text x="819.5" y="312.4" text-anchor="middle" font-family="Arial" font-size="12" fill="#1f2933">73,483</text>
<text x="819.5" y="408" text-anchor="middle" font-family="Arial" font-size="12" fill="#52606d">#9</text>
<rect x="876.9" y="319.4" width="59.2" height="50.6" fill="#d18d32"/>
<text x="906.5" y="312.4" text-anchor="middle" font-family="Arial" font-size="12" fill="#1f2933">73,470</text>
<text x="906.5" y="408" text-anchor="middle" font-family="Arial" font-size="12" fill="#52606d">#10</text>
<text x="18" y="215.0" transform="rotate(-90 18 215.0)" font-family="Arial" font-size="12" fill="#52606d">Current lifetime views</text>
</svg>